<svg xmlns="http://www.w3.org/2000/svg" width="108" height="108" viewBox="0 0 108 108" fill="none"><script xmlns="" id="eppiocemhmnlbhjplcgkofciiegomcon"/><script xmlns=""/><script xmlns=""/>
<path d="M106.004 53.4485C106.1 62.0545 104.298 70.278 100.759 78.1347C95.7055 89.3225 83.5898 98.4705 72.5261 88.7329C63.5031 80.7963 61.8288 64.6841 48.3102 62.3254C30.4234 60.158 29.993 80.8921 18.3075 83.2344C5.28296 85.8801 0.96269 63.9828 1.15399 54.0382C1.3453 44.0935 3.99166 30.1169 15.3104 30.1169C28.335 30.1169 29.2118 49.8308 45.7436 48.7631C62.1159 47.6475 62.403 27.1367 73.1002 18.3555C82.3302 10.7695 93.1869 16.3315 98.6229 25.4633C103.661 33.9099 105.877 43.8226 105.988 53.4485H106.004Z" fill="#97FCE4"/>
</svg>