<svg xmlns="http://www.w3.org/2000/svg" width="128" height="128" viewBox="0 0 128 128" fill="none"><script xmlns="" id="eppiocemhmnlbhjplcgkofciiegomcon"/><script xmlns=""/><script xmlns=""/>
<rect width="128" height="128" rx="64" fill="black"/>
<path d="M63.5454 113.634L63.5519 96.8345C61.8593 96.8345 60.1535 96.6995 58.4838 96.4327L55.8777 113.028C58.4052 113.429 60.9851 113.634 63.5487 113.634H63.5454ZM71.213 113.034C73.7471 112.632 76.2648 112.029 78.7006 111.236L73.5605 95.2534C71.9562 95.7772 70.2931 96.1757 68.6201 96.4393L71.213 113.034ZM48.3869 111.226L53.54 95.2468C51.9325 94.7231 50.3577 94.0643 48.855 93.2935L41.2659 108.258C43.5478 109.431 45.9444 110.429 48.3869 111.226ZM85.8182 108.278C88.1035 107.108 90.3134 105.745 92.3892 104.226L82.5639 90.642C81.1987 91.6433 79.745 92.5393 78.2423 93.3068L85.8182 108.278ZM34.6983 104.2L44.5333 90.6222C43.1747 89.6274 41.8781 88.5075 40.6733 87.2986L28.8575 99.1699L28.8673 99.1799C30.6811 101.005 32.6422 102.694 34.6983 104.2ZM98.1514 99.2819L98.2528 99.1766C100.06 97.3583 101.736 95.3885 103.236 93.3232L89.7437 83.425C88.755 84.7886 87.6451 86.093 86.4469 87.3019L86.28 87.4732L91.9569 92.8653L98.1514 99.2819ZM23.8614 93.2902L37.36 83.4018C36.3648 82.0283 35.4742 80.5658 34.7081 79.0539L19.8311 86.6793C20.9934 88.9752 22.3488 91.1986 23.8614 93.2869V93.2902ZM107.273 86.7122C108.438 84.4164 109.43 82.0052 110.226 79.548L94.3437 74.36C93.8232 75.9773 93.1683 77.5617 92.4023 79.0736L107.273 86.7122ZM16.8878 79.5117L32.7732 74.337C32.2526 72.723 31.8565 71.0496 31.5912 69.3663L15.0969 71.9818C15.4963 74.5313 16.0988 77.0643 16.8878 79.515V79.5117ZM112.02 72.018C112.419 69.4751 112.622 66.8795 112.626 64.3037L95.9284 64.2937C95.9284 65.9967 95.7941 67.7128 95.5289 69.3961L112.02 72.018ZM31.1951 64.2674C31.1951 62.5645 31.3294 60.845 31.5912 59.1651L15.0969 56.5496C14.6975 59.0925 14.4978 61.6882 14.4945 64.2641H31.1919L31.1951 64.2674ZM95.5354 59.1914L112.03 56.5859C111.634 54.0364 111.031 51.5034 110.246 49.0526L94.3568 54.2176C94.8774 55.8349 95.2736 57.505 95.5354 59.1881V59.1914ZM32.7732 54.1978C33.2937 52.5805 33.9485 50.9928 34.7114 49.4809L19.8344 41.8522C18.6721 44.148 17.6801 46.5592 16.8878 49.0164L32.7699 54.1978H32.7732ZM92.4219 49.504L107.305 41.8884C106.143 39.5891 104.788 37.3658 103.278 35.2774L89.7732 45.1592C90.7653 46.5329 91.6558 47.9954 92.4219 49.5073V49.504ZM37.3666 45.1329C38.3586 43.7626 39.4717 42.4516 40.6766 41.2428L40.7093 41.2098L28.9033 29.3319L28.8706 29.3648C27.0568 31.1897 25.374 33.1694 23.8712 35.2412L37.3666 45.1329ZM86.5058 41.302L90.0712 37.6425L98.279 29.3878L98.2528 29.3615C96.449 27.5465 94.4943 25.8634 92.4449 24.358L82.6032 37.929C83.9587 38.9239 85.2518 40.0372 86.4469 41.2428L86.5058 41.302ZM44.5726 37.8928C45.9379 36.8947 47.3915 35.9988 48.8943 35.2313L41.3281 20.2571C39.0428 21.4264 36.8329 22.7868 34.7573 24.3053L44.5726 37.8928ZM78.2849 35.2576L85.8837 20.2999C83.6018 19.1273 81.2086 18.1259 78.7661 17.3288L73.603 33.3044C75.2106 33.8313 76.7853 34.4868 78.2881 35.2609L78.2849 35.2576ZM53.5826 33.2846C55.1902 32.7641 56.8534 32.3655 58.5231 32.102L55.9399 15.5039C53.4091 15.9025 50.8881 16.5053 48.4522 17.2991L53.5826 33.2846ZM68.6626 32.112L71.2752 15.5171C68.7478 15.1152 66.1678 14.9077 63.6076 14.9077L63.5912 31.7067C65.2839 31.7067 66.9896 31.8452 68.6626 32.112Z" fill="white"/>
<path d="M63.5552 97.5771V80.6933C62.1447 80.6933 60.7376 80.5079 59.3768 80.1471L55.0198 96.4581C57.8009 97.1996 60.6714 97.5771 63.5552 97.5771ZM72.0906 96.4581C74.8817 95.7132 77.5668 94.6042 80.0632 93.1608L71.6139 78.5415C70.3987 79.2433 69.0942 79.7829 67.7368 80.1438L72.0906 96.4581ZM47.0438 93.1575L55.4965 78.5415C54.2848 77.8396 53.1624 76.9756 52.1558 75.9725L52.0003 75.8201L46.6664 81.4348L40.1209 87.8142L40.2168 87.907C42.2629 89.9529 44.5607 91.7173 47.0471 93.1575H47.0438ZM86.8936 87.9136H86.8969C88.9396 85.8643 90.7044 83.5701 92.1413 81.0872L77.5271 72.6321C76.8251 73.8438 75.961 74.966 74.9578 75.9692L86.8936 87.9136ZM34.9493 81.0508L49.5767 72.6156C48.8748 71.4006 48.3384 70.0962 47.9775 68.7356L31.6583 73.0757C32.3999 75.8665 33.509 78.5514 34.9493 81.0508ZM95.4455 73.1188C96.1872 70.3379 96.5646 67.4676 96.5679 64.5842L79.6825 64.5776C79.6825 65.9912 79.497 67.3981 79.1329 68.7588L95.4455 73.1188ZM47.4345 64.5577C47.4345 63.1441 47.62 61.7371 47.9875 60.3765L31.6781 56.0065C30.9332 58.7874 30.5524 61.6577 30.5524 64.5411L47.4378 64.5577H47.4345ZM79.1362 60.3964L95.4521 56.0496C94.7072 53.2588 93.598 50.5739 92.1578 48.0779L77.5337 56.5197C78.2356 57.7346 78.7753 59.039 79.1362 60.3964ZM49.5932 56.4999C50.2852 55.3048 51.1394 54.1957 52.1261 53.2025L52.1691 53.1595L46.13 47.1211L40.3228 41.1323L40.2168 41.2349C38.1773 43.2742 36.4159 45.5619 34.9823 48.0381L49.5932 56.4999ZM74.9678 53.1794L80.9472 47.2005L87.0491 41.3873L86.8969 41.2316C84.8574 39.1923 82.5629 37.4278 80.0831 35.991L71.6238 50.6038C72.819 51.2957 73.9314 52.1498 74.9247 53.1363L74.9678 53.1794ZM55.5064 50.5939C56.7183 49.892 58.0228 49.3557 59.3834 48.9915L55.0396 32.6772C52.2453 33.422 49.5635 34.5278 47.0638 35.9712L55.5064 50.5939ZM67.7468 48.9981L72.1137 32.6871C69.3327 31.9422 66.4621 31.5648 63.5783 31.5615L63.5684 48.4453C64.9822 48.4453 66.3893 48.6307 67.7501 48.9948L67.7468 48.9981Z" fill="white"/>
</svg>