<svg xmlns="http://www.w3.org/2000/svg" width="48" height="48" viewBox="0 0 48 48" fill="none"><script xmlns="" id="eppiocemhmnlbhjplcgkofciiegomcon"/><script xmlns=""/><script xmlns=""/>
<g clip-path="url(#clip0_1228_38931)">
<path d="M48 24C48 10.7452 37.2548 0 24 0C10.7452 0 0 10.7452 0 24C0 37.2548 10.7452 48 24 48C37.2548 48 48 37.2548 48 24Z" fill="#6600FF"/>
<path d="M9.98693 24.6129L17.9116 29.2123L30.2456 22.0913L34.6384 24.6172L34.6412 29.7087L30.2377 32.251L25.8511 29.6905L25.8574 26.4121L22.2947 28.469L22.3186 31.7586L30.2868 36.3305L38.1924 31.7662L38.1823 22.5687L30.2355 17.9845L17.9033 25.1046L13.4953 22.5565L13.4935 17.4667L17.8774 14.9357L22.3041 17.4708L22.2975 20.7778L25.8424 18.7312L25.8409 15.4596L17.8781 10.7942L9.92794 15.3842L9.98693 24.6129Z" fill="white"/>
</g>
<defs>
<clipPath id="clip0_1228_38931">
<rect width="48" height="48" fill="white"/>
</clipPath>
</defs>
</svg>