<svg xmlns="http://www.w3.org/2000/svg" width="48" height="48" viewBox="0 0 48 48" fill="none"><script xmlns="" id="eppiocemhmnlbhjplcgkofciiegomcon"/><script xmlns=""/><script xmlns=""/>
<rect width="48" height="48" rx="24" fill="#4B35FA"/>
<g clip-path="url(#clip0_1231_39069)">
<path d="M36.0998 36.1525L36.1607 36.3848L36.1907 36.4979C36.2396 36.683 36.4187 36.8227 36.6099 36.8235C36.621 36.8244 36.6468 36.8235 36.6648 36.8235H36.7848C37.4758 36.8287 38.4839 36.8201 39.1765 36.8235H39.6549H39.8932L39.9935 36.8193C40.4967 36.7842 40.9562 36.4336 41.1259 35.9571C41.1748 35.8276 41.3214 35.4206 41.3736 35.2817C41.6411 34.5755 41.7148 33.7998 41.5768 33.0576C41.4714 32.4953 40.8962 30.9346 40.7136 30.3527C40.6167 30.0861 40.519 29.727 40.3947 29.4827C40.2635 29.2102 40.1007 28.9685 39.9026 28.7397C39.6463 28.4414 38.5841 27.1669 38.3604 26.9055L38.2052 26.7204C37.8855 26.3621 38.0218 25.8599 37.9429 25.4279C37.6772 22.9587 35.5101 20.924 33.0386 20.8151C32.5182 20.7954 31.6808 20.8091 31.1407 20.8048C30.7806 20.8168 30.4163 20.7432 30.0974 20.5717C29.8154 20.4363 29.5308 20.1321 29.3079 19.9143L27.9397 18.573C27.7468 18.387 27.4494 18.0879 27.2582 17.9079C26.6967 17.3817 26.0452 16.9523 25.3405 16.6455C25.0259 16.5058 23.4683 15.8947 23.1271 15.7515C22.8039 15.6196 22.5047 15.4267 22.2501 15.1876C22.0152 14.9716 21.8061 14.6639 21.6166 14.4128C21.4778 14.2302 21.1923 13.8394 21.0457 13.6517C20.4842 12.9326 19.6758 12.4312 18.798 12.2007C18.4628 12.1107 16.7483 11.5656 16.4131 11.5013C15.4376 11.3128 14.3891 11.7087 13.7762 12.4938C13.5456 12.7758 13.3879 13.1195 13.2858 13.4674C13.2344 13.6766 13.1941 13.9285 13.1667 14.1454C13.0638 14.8842 12.6626 15.5733 12.072 16.0267L11.9665 16.1038C11.9563 16.1115 11.9503 16.1158 11.9468 16.1192L11.9314 16.1312C11.7479 16.2709 11.7145 16.5623 11.8645 16.7398C11.8705 16.7483 11.8885 16.7689 11.8997 16.7826L12.2066 17.1503L12.1911 17.134C12.2889 17.23 12.318 17.3851 12.2631 17.5103C12.2109 17.6165 12.1088 17.8214 12.0557 17.9294C11.9322 18.1779 11.6828 18.6793 11.5593 18.927C11.2739 19.4756 11.5722 20.2135 12.1628 20.3995L12.6875 20.5752C12.8375 20.6206 12.9678 20.7295 13.0424 20.8683L13.171 21.1245L13.2336 21.2497C13.3733 21.5505 13.6973 21.7288 14.0239 21.7056C14.1268 21.7073 15.9142 21.7048 16.4114 21.7056C16.4757 21.7056 16.528 21.7579 16.528 21.8222C16.528 21.8779 16.4886 21.9259 16.4345 21.9371L15.5773 22.1076C15.4547 22.1324 15.3656 22.2405 15.3656 22.3656V22.5833C15.3656 23.2664 15.0715 23.9169 14.5589 24.3669L11.6639 26.9081C10.2958 28.1088 9.26877 29.6584 8.69441 31.3889L7.41883 35.2183C7.2971 35.5851 7.34853 35.9948 7.58085 36.3033C7.79773 36.5896 8.12606 36.7541 8.4861 36.7541H12.1423C12.384 36.7541 12.5795 36.5579 12.5795 36.3153V35.9039C12.5795 35.7874 12.5332 35.6759 12.4517 35.5937L12.2683 35.4103C12.1517 35.2929 12.0977 35.1206 12.1448 34.9612C12.2014 34.7726 12.372 34.6475 12.564 34.6475H13.5413C13.7831 34.6475 13.9785 34.4512 13.9785 34.2086V33.5067C13.9785 32.9822 14.2245 32.4877 14.6429 32.1731L14.726 32.1105C15.9733 31.172 16.7372 29.7013 16.7208 28.1362C16.7123 27.3597 17.0569 26.6364 17.6621 26.1556L18.414 25.5582C18.4851 25.5017 18.5237 25.4125 18.5117 25.3216C18.4696 24.9882 18.3942 24.6591 18.2854 24.342C18.2065 24.1106 18.0444 23.6306 17.9673 23.4018C17.4898 22.0853 17.6364 20.5486 18.3728 19.3598C18.8383 18.5996 19.5326 17.9885 20.329 17.6405C20.3856 17.6157 20.4525 17.6405 20.4807 17.6971C20.5082 17.752 20.4885 17.8179 20.4362 17.8505C18.6574 18.9579 17.7684 21.2385 18.4928 23.227C18.5665 23.4549 18.7302 23.9546 18.8005 24.1706C19.1272 25.1614 19.17 26.2438 18.9205 27.256L17.5327 32.372L17.4889 32.5313C17.2952 33.1604 17.3818 33.8538 17.7024 34.4255C17.7153 34.4572 17.783 34.5832 17.795 34.6106C17.9416 34.8789 17.9133 35.2097 17.9141 35.4994V36.1611C17.9099 36.3084 17.9099 36.4919 18.0239 36.6051C18.1216 36.7199 18.2708 36.7644 18.4182 36.7541H21.0568H22.3762C22.4156 36.7559 22.5587 36.7541 22.5964 36.7516C22.8322 36.7293 23.0096 36.503 22.9873 36.2682V35.9374C22.9891 35.8636 22.9797 35.7908 22.9488 35.724C22.9205 35.6546 22.8588 35.5911 22.8048 35.5397L22.5699 35.3032C22.3616 35.1 22.3393 34.7392 22.5133 34.5112C22.5716 34.4264 22.9256 33.9335 22.9925 33.8376C23.3346 33.3387 23.9912 32.4499 24.3204 31.9554C25.0662 30.8163 25.3036 29.367 24.9805 28.0463C24.9068 27.6794 24.6873 27.1832 24.5664 26.8267C24.4121 26.3887 24.0195 25.3782 23.896 24.9351C23.7015 24.2726 23.7032 23.5766 23.7478 22.8952C23.7692 22.4907 23.7932 22.0853 23.8301 21.6808C23.836 21.6191 23.8875 21.5711 23.9501 21.5711C24.0118 21.5711 24.064 21.6182 24.0701 21.68C24.1275 22.2996 24.1515 22.933 24.1832 23.5509C24.2252 24.192 24.3736 24.7954 24.617 25.3928C24.779 25.8119 25.1716 26.8438 25.3242 27.2475C25.4485 27.5766 25.5411 27.9194 25.6002 28.2674C25.6448 28.5288 25.8206 28.7517 26.0649 28.8528C26.4301 29.0045 26.8141 29.1374 27.2162 29.2505C27.6302 29.367 28.0649 29.1708 28.2518 28.7816C28.2834 28.7157 28.3169 28.6496 28.3512 28.5846C28.6187 28.0642 28.9778 27.5998 29.3361 27.143C29.6636 26.7196 30.004 26.3064 30.3572 25.9019C30.3974 25.8556 30.4669 25.8479 30.5166 25.883C30.5671 25.919 30.5826 25.9884 30.5509 26.0416C30.1446 26.7213 29.6602 27.4575 29.2222 28.1054C28.701 28.9128 28.3349 29.823 28.178 30.7726C28.0571 31.532 27.8334 32.9582 27.7117 33.7313C27.662 34.0175 27.6371 34.4015 27.481 34.6534C27.3448 34.9226 27.0284 35.1377 26.8047 35.3254L26.6392 35.4608L26.6187 35.478L26.6058 35.49C26.4824 35.5963 26.4344 35.7728 26.4832 35.9288C26.5295 36.0933 26.5964 36.3685 26.6436 36.521C26.701 36.6796 26.8621 36.7893 27.0318 36.7859L27.8857 36.7833C28.592 36.7808 29.313 36.7867 30.0202 36.7876C30.052 36.7876 30.148 36.7884 30.1797 36.7876C30.4917 36.7859 30.8029 36.6856 31.0524 36.4962C31.3695 36.2673 31.523 35.9459 31.6465 35.5714C31.7408 35.3134 32.2808 33.853 32.3871 33.5632C32.4831 33.2941 32.598 33.0036 32.7223 32.7474C33.1106 31.9434 33.6567 31.2149 34.3373 30.6346C35.162 29.9576 35.7724 29.0816 36.1856 28.0814C36.2096 28.0232 36.2722 27.9923 36.3322 28.0095C36.3922 28.0266 36.4307 28.0857 36.4213 28.1474C36.285 28.9873 35.8804 29.7707 35.3241 30.4127C35.102 30.6689 34.9726 30.9929 34.9726 31.3323V31.616C34.97 31.7523 34.9709 31.9143 34.9957 32.0497C35.0532 32.3899 35.2357 32.7028 35.4946 32.929L35.6704 33.091L36.3751 33.7398L36.7273 34.0646C36.8243 34.1469 36.9014 34.2566 36.934 34.3801C37.0085 34.6338 36.8919 34.9158 36.6751 35.0614C36.5825 35.1377 36.3956 35.2877 36.303 35.3631C36.261 35.4017 36.1821 35.4557 36.1444 35.4968C36.0373 35.6057 35.997 35.772 36.0356 35.9193L36.0964 36.1516L36.0998 36.1525Z" fill="white"/>
</g>
<defs>
<clipPath id="clip0_1231_39069">
<rect width="34.29" height="26.0902" fill="white" transform="translate(7.35498 11.4548)"/>
</clipPath>
</defs>
</svg>