<svg xmlns="http://www.w3.org/2000/svg" width="48" height="48" viewBox="0 0 48 48" fill="none"><script xmlns="" id="eppiocemhmnlbhjplcgkofciiegomcon"/><script xmlns=""/><script xmlns=""/>
<path d="M24 48C37.2549 48 48 37.2549 48 24C48 10.7452 37.2549 0 24 0C10.7452 0 0 10.7452 0 24C0 37.2549 10.7452 48 24 48Z" fill="#F25D00"/>
<path d="M22.7561 8.25586H15.4385C15.1866 8.25586 14.9824 8.46002 14.9824 8.71186V16.0294C14.9824 16.2813 15.1866 16.4854 15.4385 16.4854H22.7561C23.0079 16.4854 23.2121 16.2813 23.2121 16.0294V8.71186C23.2121 8.46002 23.0079 8.25586 22.7561 8.25586Z" fill="white"/>
<path d="M14.9854 29.2819V36.5995C14.9854 36.8514 15.1895 37.0555 15.4413 37.0555H22.7589C23.0108 37.0555 23.2149 36.8514 23.2149 36.5995V29.2819C23.2149 29.0301 23.0108 28.8259 22.7589 28.8259H15.4413C15.1895 28.8259 14.9854 29.0301 14.9854 29.2819Z" fill="white"/>
<path d="M14.9824 18.998V26.3156C14.9824 26.5674 15.1866 26.7716 15.4385 26.7716H22.7561C23.0079 26.7716 23.2121 26.5674 23.2121 26.3156V18.998C23.2121 18.7461 23.0079 18.542 22.7561 18.542H15.4385C15.1866 18.542 14.9824 18.7461 14.9824 18.998Z" fill="white"/>
<path d="M25.2686 29.2827V36.6003C25.2686 36.8521 25.4727 37.0563 25.7246 37.0563H33.0422C33.294 37.0563 33.4982 36.8521 33.4982 36.6003V29.2827C33.4982 29.0308 33.294 28.8267 33.0422 28.8267H25.7246C25.4727 28.8267 25.2686 29.0308 25.2686 29.2827Z" fill="white"/>
<path d="M25.2686 18.9958V26.3134C25.2686 26.5652 25.4727 26.7694 25.7246 26.7694H33.0422C33.294 26.7694 33.4982 26.5652 33.4982 26.3134V18.9958C33.4982 18.7439 33.294 18.5398 33.0422 18.5398H25.7246C25.4727 18.5398 25.2686 18.7439 25.2686 18.9958Z" fill="white"/>
</svg>