<svg xmlns="http://www.w3.org/2000/svg" width="400" height="400" viewBox="0 0 400 400" fill="none"><script xmlns="" id="eppiocemhmnlbhjplcgkofciiegomcon"/><script xmlns=""/><script xmlns=""/>
<g clip-path="url(#clip0_180_10)">
<path d="M401 2V401H1C1 268.3 1 135.6 1.5 2.5C135 2 268 2 401 2ZM164.6 51.8C164.3 51.6 164 51.4 163.9 51.1C163.9 51.1 163.9 51.3 163.6 50.9L162.8 50.2C162.8 50.2 162.8 50.4 162.5 49.9L161.8 49.2L161.6 48.6C160.8 48.1 160 47.6 158.6 47.3C149.6 53.1 147.9 60 154.4 67.8C157.9 71.8 162.3 75.2 166.2 78.8C170.5 82.8 170.6 85 166.1 88.4C161.6 91.7 156.9 94.8 152.1 97.7C142.9 103.6 142.1 112.5 150.8 119.8L193.2 93.8C199.6 89.8 199.9 86.7 194.3 81.2C188.2 75.2 182 69.1 176 62.9L175.9 62.7C175.9 62.7 175.7 62.9 175.3 62.8C175.3 62.8 175.1 62.5 175.3 61.8L172.2 59.8V59C172 58.8 171.8 58.7 171.2 58.8V58L169.2 56.9L166.6 53.9L165.9 53.1C165.9 53.1 165.9 53.3 165.6 52.8C165.3 52.6 165 52.4 164.9 52.1C164.9 52.1 164.9 52.3 164.6 51.8ZM220.5 106.8L218.8 105.8C213.2 101.1 211.5 101 205.6 104.8L163 131.8C158.216 134.728 154.148 138.689 151.094 143.393C148.039 148.096 146.076 153.424 145.347 158.985C144.619 164.546 145.143 170.199 146.883 175.531C148.622 180.863 151.532 185.739 155.4 189.8C164.2 199.8 172.8 209.8 181.8 219.8C187.074 225.492 190.893 232.376 192.93 239.863C194.967 247.351 195.163 255.22 193.5 262.8C189.5 285.2 184.5 307.4 179.7 329.7C178.2 336.9 179.1 343 184.5 347.9C190.2 353 197 353.9 203.5 350.4C215.9 343.8 227.8 336.7 240.3 330L241.5 328.5L241.9 328.3C242.2 328 242.4 327.7 242.7 327.7C242.7 327.7 242.5 327.7 243 327.4L243.9 326.1C244.1 325.9 244.3 325.8 245.3 325.7C248.1 322.7 251 319.7 253.9 316.2C254 315.9 254.2 315.8 255 315.5C255.3 315.1 255.5 314.8 255.8 314.8C255.8 314.8 255.5 314.8 256 314.4L257 312.6C265.497 302.394 272.347 290.922 277.3 278.6C286.551 257.772 289.873 234.795 286.9 212.2C283.888 194.273 276.882 177.253 266.4 162.4C257 148.6 246.1 135.7 235.5 121.9C235.2 121.6 234.9 121.3 234.8 121C234.8 121 234.8 121.3 234.5 120.8C234.2 120.5 233.9 120.3 233.8 120C233.8 120 233.8 120.2 233.5 119.7L232 118.7C228.887 115.511 225.82 112.277 222.8 109C222.8 109 222.8 109.2 222.5 108.7C222.2 108.5 221.9 108.3 221.8 108C221.8 108 221.8 108.2 221.5 107.8C221.1 107.5 220.8 107.3 220.8 107C220.8 107 220.8 107.3 220.4 106.7L220.5 106.8Z" fill="#FF004B"/>
<path d="M401 1.5C268 2 135 2 1.5 2C2.3 1.7 3.7 1 5 1H177C251.7 1 326.3 1 401 1.5Z" fill="#FF0055"/>
<path d="M236 122.6C246.2 135.8 257 148.6 266.5 162.5C276.8 177.5 284.1 194.1 287 212.3C290.6 235.3 286 257.3 277.4 278.6C272.326 291.154 265.306 302.83 256.6 313.2L255.6 314.9C255.1 315.2 254.8 315.5 254.6 315.9C254.3 315.9 254.1 316 253.6 316.7L244.7 325.9C244.4 325.9 244.2 325.9 243.7 326.5L242.6 327.8C242 328 241.7 328.3 241.5 328.6H241.3L240 329.8C227.9 336.8 216 343.9 203.7 350.5C200.697 352.223 197.21 352.911 193.778 352.459C190.345 352.008 187.156 350.441 184.7 348C179.2 343 178.3 337 179.8 329.8C184.7 307.5 189.6 285.3 193.6 262.8C195.263 255.22 195.067 247.351 193.03 239.863C190.993 232.376 187.174 225.492 181.9 219.8C172.9 210 164.3 199.8 155.5 189.8C151.665 185.747 148.78 180.891 147.054 175.584C145.329 170.277 144.806 164.653 145.524 159.119C146.242 153.585 148.183 148.28 151.206 143.59C154.228 138.899 158.257 134.94 163 132C177 122.8 191.3 113.9 205.5 104.8C211.5 101.1 213.1 101.2 219.2 106.3L220.8 107.5C221.1 108 221.4 108.2 221.8 108.5C222.1 109 222.5 109.2 222.8 109.5C223.1 110 223.5 110.2 223.8 110.5L232.4 119.4L233.8 120.4C234.1 121 234.4 121.2 234.8 121.4V121.5C235.1 122.1 235.5 122.4 235.8 122.7M214.1 280C214.1 281.9 214.3 283.7 214 285.5C212.9 291.3 216 294.7 220.6 297C225.3 299.4 230.6 298.7 234.4 294.7C259.2 269 270.7 239.3 261.2 203.6C253.1 173.4 233.7 150.4 211.6 129.6C210.2 128.2 206 128.1 204.1 129.2C193.658 135.384 183.387 141.853 173.3 148.6C165.2 154 164.2 163.6 170.5 171.1C174.7 176.1 179.1 180.9 183.2 185.9C191.7 196.2 201 205.9 208 217.1C220.2 236.4 220.5 257.6 214.1 280.1V280Z" fill="#FFFCFD"/>
<path d="M175.8 63L194.3 81.2C199.9 86.7 199.6 89.7 193.2 93.7L150.8 119.8C142.2 112.5 142.8 103.6 152.2 97.8C156.9 94.8 161.6 91.7 166.1 88.4C170.6 85 170.5 82.8 166.2 78.8C162.2 75.2 157.9 71.8 154.4 67.8C147.9 60 149.5 53.1 159.1 47.6L161.7 49.3L161.8 49.5L162.8 50.4L163.8 51.4L164.8 52.4C164.8 52.4 164.8 52.1 164.9 52.4C165.2 52.9 165.6 53.1 165.9 53.4C166.2 53.9 166.6 54.1 166.9 54.4C168.381 55.9849 169.915 57.5191 171.5 59L172.1 59.4C172.1 59.4 172.1 59.8 172.5 60L175.1 62.5L175.5 62.9L175.8 63Z" fill="#FFFBFC"/>
<path d="M245 325.9C247.6 322.9 250.4 319.9 253.6 316.9C251.1 319.8 248.2 322.8 245.1 325.9H245Z" fill="#FF0036"/>
<path d="M175.2 62.2C174.222 61.6508 173.343 60.9409 172.6 60.1C173.4 60.5 174.3 61.1 175.2 62.1V62.2ZM161.7 49C161 48.8 160.3 48.3 159.4 47.5C160 47.7 160.8 48.1 161.7 49Z" fill="#FF0035"/>
<path d="M240.2 330C240.3 329.5 240.7 329.1 241.2 328.6C241.01 329.154 240.663 329.641 240.2 330Z" fill="#FF0036"/>
<path d="M171.1 58.3C170.7 58.3 170.4 57.9 169.9 57.3C170.2 57.3 170.7 57.7 171.1 58.3Z" fill="#FF0035"/>
<path d="M222.7 109C222.6 109.1 222.2 108.9 221.7 108.4C222 108.4 222.3 108.6 222.7 109.1V109Z" fill="#FF0033"/>
<path d="M241.8 328.5C241.8 328.3 242 328 242.5 327.7C242.5 327.8 242.3 328.1 241.8 328.5ZM242.8 327.7C242.8 327.5 243.1 327.2 243.6 326.7C243.6 326.9 243.4 327.2 242.8 327.7ZM254.9 315.7C254.9 315.5 255.1 315.2 255.6 314.7C255.6 314.9 255.4 315.2 254.9 315.7ZM255.9 314.7C255.9 314.5 256 314.1 256.6 313.5C256.6 313.7 256.4 314.1 255.9 314.7Z" fill="#FF0036"/>
<path d="M235.8 122.3C235.6 122.3 235.2 122 234.8 121.3C235 121.3 235.3 121.7 235.8 122.3ZM234.7 121.1C234.5 121.1 234.2 120.9 233.7 120.4C234 120.4 234.3 120.6 234.7 121.1ZM233.7 120C233.6 120.1 233.2 119.9 232.7 119.4C233 119.4 233.3 119.6 233.7 120.1V120ZM223.7 110C223.6 110.1 223.2 109.9 222.7 109.4C223 109.4 223.3 109.6 223.7 110.1V110Z" fill="#FF0033"/>
<path d="M163.7 51.1C163.5 51.1 163.2 50.9 162.7 50.4C162.9 50.4 163.2 50.6 163.7 51.1Z" fill="#FF0035"/>
<path d="M221.7 108.1C221.5 108.1 221.2 107.9 220.7 107.4C220.9 107.4 221.2 107.6 221.7 108.1ZM220.7 107.1C220.5 107.1 220.1 106.9 219.6 106.4C219.8 106.4 220.1 106.6 220.7 107.1Z" fill="#FF0033"/>
<path d="M162.7 50.1C162.5 50.1 162.2 49.9 161.7 49.4C161.9 49.4 162.2 49.6 162.7 50.1ZM175.9 63H175.7L175.9 62.7V62.9V63ZM172 59.3L171.6 59.1C171.8 58.8 172 58.9 172.1 59.3H172ZM166.7 54C166.6 54.1 166.2 53.9 165.7 53.4C166 53.4 166.3 53.6 166.7 54.1V54ZM165.7 53C165.6 53.1 165.2 52.9 164.7 52.4C165 52.4 165.3 52.6 165.7 53.1V53ZM164.7 52C164.6 52.1 164.2 51.9 163.7 51.4C164 51.4 164.3 51.6 164.7 52.1V52Z" fill="#FF0035"/>
<path d="M214.2 279.6C220.5 257.6 220.2 236.4 208 217.1C201 205.9 191.7 196.1 183.2 185.9C179.2 180.9 174.7 176.1 170.5 171.1C164.2 163.7 165.2 154 173.3 148.6C183.387 141.853 193.658 135.384 204.1 129.2C206 128.1 210.1 128.2 211.6 129.5C233.7 150.5 253.1 173.4 261.2 203.6C270.7 239.3 259.2 269 234.4 294.7C230.5 298.7 225.3 299.4 220.6 297C216 294.7 212.9 291.3 214 285.5C214.3 283.7 214 281.9 214.2 279.6Z" fill="#FF014B"/>
</g>
<defs>
<clipPath id="clip0_180_10">
<rect width="400" height="400" rx="200" fill="white"/>
</clipPath>
</defs>
</svg>