<svg xmlns="http://www.w3.org/2000/svg" width="426" height="426" viewBox="0 0 426 426" fill="none"><script xmlns="" id="eppiocemhmnlbhjplcgkofciiegomcon"/><script xmlns=""/><script xmlns=""/>
<circle cx="212.5" cy="212.5" r="212.5" fill="white"/>
<path d="M277.678 180.623L142.475 180.524C105.62 180.524 74.9621 209.639 74.0005 247.064C73.9776 248.062 74.7942 248.886 75.8016 248.893L211.004 248.977V249C247.859 249 278.517 219.885 279.479 182.46C279.502 181.461 278.685 180.638 277.678 180.63V180.623ZM346.198 78.0991L142.475 78C105.62 78 74.9621 107.115 74.0005 144.54C73.9776 145.539 74.7942 146.362 75.8016 146.37L279.525 146.453V146.476C316.38 146.476 347.038 117.361 348 79.9364C348.022 78.9377 347.206 78.1144 346.198 78.1067V78.0991Z" fill="#E62359"/>
<path d="M121.584 347.927C139.015 340.707 147.293 320.723 140.072 303.292C132.852 285.861 112.869 277.584 95.4377 284.804C78.0068 292.024 69.7293 312.008 76.9494 329.438C84.1696 346.869 104.153 355.147 121.584 347.927Z" fill="#E62359"/>
</svg>