<svg xmlns="http://www.w3.org/2000/svg" width="128" height="128" viewBox="0 0 128 128" fill="none"><script xmlns="" id="eppiocemhmnlbhjplcgkofciiegomcon"/><script xmlns=""/><script xmlns=""/>
<path d="M64 128C99.3462 128 128 99.3462 128 64C128 28.6538 99.3462 0 64 0C28.6538 0 0 28.6538 0 64C0 99.3462 28.6538 128 64 128Z" fill="black"/>
<path d="M108.421 42.6764H96.1717C95.3658 40.0777 93.9306 37.622 91.8659 35.5526C89.8394 33.5261 87.398 32.0574 84.7421 31.2373V18.9971H76.0399V30.8558C72.9691 31.5234 70.1606 33.0445 67.8957 35.3094L62.0975 41.1076C60.3999 42.8051 60.3999 45.5612 62.0975 47.2635C63.795 48.961 66.551 48.961 68.2533 47.2635L74.0516 41.4653C75.5583 39.9585 77.5944 39.1479 79.7735 39.1717C82.0003 39.2003 84.1079 40.1015 85.7148 41.7084C88.9954 44.989 89.105 50.2246 85.958 53.3717L73.7655 65.5642C70.6184 68.7113 65.3828 68.6016 62.1022 65.321C60.4047 63.6235 57.6486 63.6235 55.9464 65.321C54.2488 67.0185 54.2488 69.7746 55.9464 71.4769C59.3271 74.8576 63.7568 76.5551 68.1579 76.5551C72.4399 76.5551 76.6932 74.9482 79.9213 71.7201L92.1138 59.5275C94.4265 57.2149 95.8999 54.3778 96.5579 51.3833H108.431V42.6764H108.421Z" fill="white"/>
<path d="M59.0648 80.2647L53.2666 86.0629C50.1195 89.21 44.8887 89.1003 41.6033 85.8197C38.3228 82.5391 38.2131 77.3036 41.3602 74.1565L53.5527 61.964C56.6997 58.8169 61.9353 58.9266 65.2159 62.2071C66.9134 63.9047 69.6695 63.9047 71.3718 62.2071C73.0693 60.5096 73.0693 57.7536 71.3718 56.0513C64.6962 49.3757 53.9437 49.266 47.4016 55.8081L35.2091 68.0006C32.8964 70.3132 31.423 73.1504 30.765 76.1449H18.892V84.847H31.1417C31.9475 87.4457 33.3828 89.9014 35.4475 91.9708C37.5121 94.0355 39.9678 95.4707 42.5713 96.2766V108.531H51.2734V96.658C54.2727 96.0048 57.1098 94.5266 59.4177 92.214L65.2159 86.4158C66.9134 84.7182 66.9134 81.9622 65.2159 80.2599C63.5184 78.5624 60.7623 78.5624 59.0648 80.2647Z" fill="white"/>
</svg>