<svg xmlns="http://www.w3.org/2000/svg" width="39" height="38" viewBox="0 0 39 38" fill="none"><script xmlns="" id="eppiocemhmnlbhjplcgkofciiegomcon"/><script xmlns=""/><script xmlns=""/>
<g clip-path="url(#clip0_1589_35776)">
<path d="M31.6151 0.496338H8.02934C4.12152 0.496338 0.953613 3.61062 0.953613 7.45229V30.6388C0.953613 34.4805 4.12152 37.5947 8.02934 37.5947H31.6151C35.5229 37.5947 38.6908 34.4805 38.6908 30.6388V7.45229C38.6908 3.61062 35.5229 0.496338 31.6151 0.496338Z" fill="#11162F"/>
<path d="M24.3531 20.1776L28.0486 7.91602H23.1209L18.1938 16.4829V7.91602H13.2667L9.57129 20.1776H12.5277L9.57129 29.987H18.1938V23.8778L25.5853 32.501L30.5435 25.0826L20.6888 20.1776H24.3531Z" fill="#F4FF00"/>
</g>
<defs>
<clipPath id="clip0_1589_35776">
<rect x="0.953613" y="0.496338" width="37.7372" height="37.0984" rx="18.5492" fill="white"/>
</clipPath>
</defs>
</svg>