<svg xmlns="http://www.w3.org/2000/svg" width="48" height="48" viewBox="0 0 48 48" fill="none"><script xmlns="" id="eppiocemhmnlbhjplcgkofciiegomcon"/><script xmlns=""/><script xmlns=""/>
<rect width="48" height="48" rx="24" fill="white"/>
<g clip-path="url(#clip0_1229_39040)">
<mask id="mask0_1229_39040" style="mask-type:luminance" maskUnits="userSpaceOnUse" x="6" y="12" width="93" height="24">
<path fill-rule="evenodd" clip-rule="evenodd" d="M30.7459 19.1603C31.883 18.108 33.375 17.4558 35.0378 17.4552C38.7327 17.4564 41.7261 20.4523 41.7261 24.1497C41.7261 27.3485 38.5606 30.0839 37.7693 30.7138C34.0687 33.6606 29.2486 35.3838 24.0463 35.3838C18.8441 35.3838 14.024 33.6606 10.3235 30.7138C9.53663 30.0839 6.3667 27.344 6.3667 24.1497C6.3667 20.4516 9.36128 17.4552 13.0528 17.4552C14.7164 17.4552 16.2092 18.1076 17.3468 19.1603L17.4637 19.1018C17.7245 15.6511 20.5302 12.9292 24.0463 12.9292C27.5626 12.9292 30.3683 15.6511 30.6291 19.1018L30.7459 19.1603ZM32.0814 25.8158C32.5894 26.3241 32.9537 26.936 33.156 27.6063H33.1605C33.255 27.9123 33.0436 28.2317 32.7288 28.2856C32.4635 28.3307 32.2073 28.1642 32.1263 27.9033C31.9735 27.4084 31.7037 26.9539 31.3259 26.5761C30.7144 25.9643 29.9007 25.6267 29.0329 25.6267C28.9991 25.6267 28.9665 25.629 28.9339 25.6313C28.9013 25.6335 28.8687 25.6358 28.835 25.6358C29.3206 25.8607 29.6623 26.3511 29.6623 26.9225C29.6623 27.7098 29.0284 28.3442 28.2415 28.3442C27.4546 28.3442 26.8207 27.7053 26.8207 26.9225C26.8207 26.7425 26.8566 26.5671 26.9195 26.4096C26.8566 26.4636 26.7936 26.5176 26.7352 26.5761C26.3575 26.9539 26.0878 27.4084 25.9348 27.9033C25.8584 28.1642 25.6021 28.3307 25.3323 28.2856C25.0176 28.2317 24.8063 27.9123 24.9006 27.6063C25.1031 26.936 25.4672 26.3241 25.9754 25.8158C26.7891 25.0014 27.8773 24.5516 29.0284 24.5516C30.1795 24.5516 31.2675 25.0014 32.0814 25.8158ZM18.9702 25.6313C19.0028 25.6291 19.0354 25.6268 19.0691 25.6268C19.9369 25.6268 20.7507 25.9643 21.3622 26.5762C21.7399 26.954 22.0097 27.4085 22.1626 27.9034C22.2434 28.1643 22.4998 28.3308 22.7651 28.2858C23.0798 28.2318 23.2912 27.9124 23.1967 27.6064C22.9944 26.9361 22.6302 26.3243 22.1221 25.8159C21.3083 25.0015 20.2202 24.5517 19.0691 24.5517C17.918 24.5517 16.8299 25.0015 16.016 25.8159C15.508 26.3243 15.1438 26.9361 14.9414 27.6064C14.847 27.9124 15.0583 28.2318 15.3731 28.2858C15.6428 28.3308 15.8991 28.1643 15.9756 27.9034C16.1284 27.4085 16.3982 26.954 16.7759 26.5762C16.8344 26.5177 16.8973 26.4636 16.9603 26.4097C16.8973 26.5672 16.8614 26.7427 16.8614 26.9226C16.8614 27.7054 17.4953 28.3443 18.2822 28.3443C19.0691 28.3443 19.7031 27.7099 19.7031 26.9226C19.7031 26.3512 19.3614 25.8608 18.8757 25.6359H18.8712C18.905 25.6359 18.9376 25.6336 18.9702 25.6313ZM24.0513 30.8275C24.8786 30.8275 25.634 30.5127 26.2096 29.9997C26.4209 29.8153 26.7312 29.8063 26.938 29.9907C27.1718 30.1977 27.1853 30.5711 26.9514 30.7826C26.1871 31.4799 25.1664 31.9073 24.0513 31.9073C22.9363 31.9073 21.9201 31.4799 21.1511 30.7826C20.9174 30.5711 20.9309 30.2022 21.1646 29.9907C21.376 29.8018 21.6862 29.8153 21.893 29.9997C22.4641 30.5127 23.224 30.8275 24.0513 30.8275Z" fill="white"/>
</mask>
<g mask="url(#mask0_1229_39040)">
<path d="M98.5267 12.6365H6.3667V35.6765H98.5267V12.6365Z" fill="#242527"/>
</g>
</g>
<defs>
<clipPath id="clip0_1229_39040">
<rect width="35.2103" height="22.8067" fill="white" transform="translate(6.40186 12.7705)"/>
</clipPath>
</defs>
</svg>