<svg xmlns="http://www.w3.org/2000/svg" width="128" height="128" viewBox="0 0 128 128" fill="none"><script xmlns="" id="eppiocemhmnlbhjplcgkofciiegomcon"/><script xmlns=""/><script xmlns=""/>
<rect width="128" height="128" rx="64" fill="white"/>
<path fill-rule="evenodd" clip-rule="evenodd" d="M37.5558 99.4527C32.0471 95.3293 27.5764 89.9776 24.4992 83.8231C21.4219 77.6686 19.823 70.881 19.8295 64.0001C19.8295 39.5746 39.5766 19.7595 63.9176 19.7595C84.0129 19.7595 105.956 31.8105 111.256 50.2681C105.326 29.6496 86.3819 14.5601 63.9176 14.5601C36.7112 14.5601 14.6486 36.7009 14.6486 64.0001C14.6486 91.2992 36.7112 113.44 63.9176 113.44C91.1219 113.44 113.185 91.2992 113.185 64.0001V61.3942H110.119C109.798 61.3942 109.343 61.3797 108.753 61.353C107.225 61.2999 105.698 61.2058 104.174 61.0707C100.481 60.7494 96.2637 60.117 93.3982 58.9613C88.7777 57.1073 86.1676 54.6621 83.1951 51.7884L83.022 51.6277C80.035 48.7519 76.6896 45.5136 70.866 42.7738C65.135 40.0732 58.8026 40.5037 54.1573 41.4698C52.1785 41.8783 50.2322 42.4305 48.3337 43.122C47.6106 43.3774 47.0359 43.6205 46.6321 43.7812C44.2899 44.7741 42.0136 45.9442 39.7249 47.0318C39.7249 47.0318 44.2363 48.2678 46.4591 48.9682C46.5394 48.993 46.6589 49.0342 46.834 49.0877C47.1677 49.1948 47.6498 49.3699 48.2266 49.611C49.4049 50.0951 50.9437 50.8058 52.4702 51.8007C54.8804 53.3457 56.8744 55.3069 57.6923 57.6985C52.5896 58.3701 47.7981 60.6278 44.2096 62.7373C42.3958 63.8123 40.6435 64.9876 38.9607 66.2578C38.3324 66.7399 37.8236 67.1436 37.4754 67.4258C35.8376 68.8582 34.204 70.2954 32.5747 71.7374C32.5747 71.7374 38.5198 72.3698 41.4533 72.9611C43.4062 73.3525 46.0306 73.9952 48.7869 74.949C51.5473 75.9172 54.3303 77.1799 56.6478 78.8053C58.9633 80.4327 60.6648 82.299 61.493 84.4497C63.9299 90.708 61.5342 96.7953 56.7282 100.221C51.9737 103.606 44.7596 104.411 37.5413 99.4403L37.5558 99.4527ZM54.3715 107.192C56.2914 106.564 58.1054 105.649 59.7523 104.479C66.2866 99.8173 69.7268 91.2745 66.3401 82.5668C65.0011 79.1411 62.457 76.5352 59.6328 74.5473C56.7941 72.5573 53.5414 71.1071 50.5152 70.0462C48.5335 69.3458 46.6053 68.8102 44.9326 68.4064C45.5341 68.0171 46.1645 67.6133 46.8484 67.2116C50.8366 64.8591 55.8712 62.6961 60.6916 62.6961C67.9593 62.6961 73.3689 64.9415 78.5374 67.3311C79.005 67.5474 79.4747 67.776 79.9567 67.9903C84.5753 70.1656 89.4204 72.4502 95.0565 72.4502C100.695 72.4502 104.778 70.9052 107.709 69.2943C105.099 91.2188 86.5034 108.228 63.9444 108.228C60.7343 108.227 57.5338 107.88 54.3983 107.192H54.3715ZM102.087 66.1095C100.145 66.7687 97.7881 67.2507 95.0442 67.2507C90.6255 67.2507 86.8248 65.4791 82.0044 63.2214C81.5759 63.0195 81.1474 62.8176 80.7066 62.6157C75.8718 60.3724 70.2892 57.9952 63.0194 57.5646C62.043 52.7422 58.4009 49.4359 55.2676 47.4212C54.9256 47.1966 54.5773 46.9816 54.2232 46.7764C54.5322 46.7105 54.8536 46.6281 55.1873 46.5622C59.3897 45.6887 64.3996 45.4745 68.6432 47.4892C73.6779 49.8664 76.5289 52.6083 79.4871 55.4552L79.5942 55.5499C82.6327 58.4793 85.8607 61.5548 91.4701 63.8105C94.5889 65.061 98.6327 65.7325 102.087 66.1095Z" fill="url(#paint0_linear_1300_4568)"/>
<defs>
<linearGradient id="paint0_linear_1300_4568" x1="13.7648" y1="64.9147" x2="114.068" y2="63.0854" gradientUnits="userSpaceOnUse">
<stop stop-color="#29CCB9"/>
<stop offset="0.49" stop-color="#0091FF"/>
<stop offset="1" stop-color="#FF66B7"/>
</linearGradient>
</defs>
</svg>