<svg xmlns="http://www.w3.org/2000/svg" width="128" height="128" viewBox="0 0 128 128" fill="none"><script xmlns="" id="eppiocemhmnlbhjplcgkofciiegomcon"/><script xmlns=""/><script xmlns=""/>
<rect width="128" height="128" rx="64" fill="#30BF54"/>
<g clip-path="url(#clip0_1300_4509)">
<path d="M22.6682 22.668C45.4963 22.668 64.0001 41.1717 64.0001 63.9998C41.172 63.9998 22.6682 45.4961 22.6682 22.668ZM105.332 105.332C82.5038 105.332 64.0001 86.8279 64.0001 63.9998C86.8281 63.9998 105.332 82.5036 105.332 105.332ZM64.0001 63.9998C64.0001 58.5189 66.1773 53.2624 70.053 49.3868C73.9286 45.5112 79.185 43.3339 84.666 43.3339C84.666 48.8148 82.4887 54.0713 78.6131 57.9469C74.7375 61.8225 69.481 63.9998 64.0001 63.9998ZM64.0001 63.9998C64.0001 69.4808 61.8228 74.7372 57.9471 78.6128C54.0715 82.4884 48.8151 84.6657 43.3341 84.6657C43.3341 79.1848 45.5114 73.9283 49.387 70.0527C53.2627 66.1771 58.5191 63.9998 64.0001 63.9998Z" fill="black"/>
</g>
<defs>
<clipPath id="clip0_1300_4509">
<rect width="82.6637" height="82.6637" fill="white" transform="translate(22.6682 22.668)"/>
</clipPath>
</defs>
</svg>