<svg xmlns="http://www.w3.org/2000/svg" width="48" height="48" viewBox="0 0 48 48" fill="none"><script xmlns="" id="eppiocemhmnlbhjplcgkofciiegomcon"/><script xmlns=""/><script xmlns=""/>
<rect width="48" height="48" rx="24" fill="url(#paint0_linear_1229_39001)"/>
<g clip-path="url(#clip0_1229_39001)">
<path fill-rule="evenodd" clip-rule="evenodd" d="M23.9214 4.60229L24.0112 4.60229C28.7517 4.61359 33.0823 6.41204 36.3952 9.37479C36.6299 9.58473 36.4812 9.97001 36.1696 9.97001H11.763C11.4514 9.97001 11.3028 9.58473 11.5375 9.37479C14.8503 6.41204 19.1809 4.61359 23.9214 4.60229Z" fill="white"/>
<path fill-rule="evenodd" clip-rule="evenodd" d="M16.6116 29.2438C16.4763 29.0462 16.2585 28.9221 16.023 28.9221H6.2434C5.96009 28.9221 5.75353 29.1973 5.83393 29.4756C8.14934 37.4909 15.3912 43.3389 23.9663 43.3389C32.5415 43.3389 39.7834 37.4909 42.0988 29.4756C42.1792 29.1973 41.9726 28.9221 41.6893 28.9221H31.91C31.6743 28.9221 31.4565 29.0462 31.3212 29.2438C29.6977 31.6155 27.0088 33.166 23.9664 33.166C20.9241 33.166 18.2352 31.6155 16.6116 29.2438Z" fill="white"/>
<path fill-rule="evenodd" clip-rule="evenodd" d="M31.0855 18.3692C31.2584 18.5995 31.5217 18.7439 31.8053 18.7439H41.6066C41.8925 18.7439 42.0996 18.4643 42.0142 18.1847C41.2735 15.7574 40.0792 13.5353 38.5328 11.6229C38.4041 11.4637 38.2118 11.3738 38.01 11.3738L9.92014 11.3738C9.71835 11.3738 9.52608 11.4637 9.39736 11.6229C7.85096 13.5353 6.65655 15.7574 5.91588 18.1847C5.83056 18.4643 6.03762 18.7439 6.32358 18.7439H16.1249C16.4085 18.7439 16.6718 18.5995 16.8446 18.3692C18.4857 16.1829 21.0648 14.774 23.965 14.774C26.8654 14.774 29.4444 16.1829 31.0855 18.3692Z" fill="white"/>
<path fill-rule="evenodd" clip-rule="evenodd" d="M32.6386 27.521C32.4535 27.521 32.3277 27.3277 32.3917 27.1497C32.7474 26.1597 32.9417 25.0896 32.9417 23.973C32.9417 22.7559 32.7108 21.5938 32.2915 20.5306C32.2207 20.3513 32.3468 20.1509 32.5355 20.1509H42.1497C42.3556 20.1509 42.5334 20.2996 42.57 20.5071C42.7683 21.6317 42.8718 22.7902 42.8718 23.9733C42.8718 25.0582 42.7848 26.1222 42.6174 27.1584C42.5835 27.3689 42.4043 27.521 42.1961 27.521H32.6386ZM15.5379 27.1497C15.6018 27.3277 15.476 27.521 15.2909 27.521L5.73339 27.5209C5.52515 27.5209 5.34602 27.3689 5.31203 27.1584C5.14468 26.1222 5.05762 25.0582 5.05762 23.9733C5.05762 22.7902 5.16118 21.6317 5.35953 20.5071C5.39613 20.2996 5.57393 20.1509 5.77981 20.1509H15.394C15.5828 20.1509 15.7087 20.3513 15.638 20.5306C15.2187 21.5938 14.9879 22.7558 14.9879 23.973C14.9879 25.0896 15.182 26.1597 15.5379 27.1497Z" fill="white"/>
</g>
<defs>
<linearGradient id="paint0_linear_1229_39001" x1="48" y1="24" x2="0" y2="24" gradientUnits="userSpaceOnUse">
<stop stop-color="#A75E71"/>
<stop offset="0.528846" stop-color="#6D30AF"/>
<stop offset="1" stop-color="#704BBC"/>
</linearGradient>
<clipPath id="clip0_1229_39001">
<rect width="37.8144" height="38.784" fill="white" transform="translate(5.05762 4.60815)"/>
</clipPath>
</defs>
</svg>