<svg xmlns="http://www.w3.org/2000/svg" width="39" height="39" viewBox="0 0 39 39" fill="none"><script xmlns="" id="eppiocemhmnlbhjplcgkofciiegomcon"/><script xmlns=""/><script xmlns=""/>
<g clip-path="url(#clip0_1589_35769)">
<path d="M31.6151 0.951599H8.02934C4.12152 0.951599 0.953613 4.06588 0.953613 7.90755V31.0941C0.953613 34.9357 4.12152 38.05 8.02934 38.05H31.6151C35.5229 38.05 38.6908 34.9357 38.6908 31.0941V7.90755C38.6908 4.06588 35.5229 0.951599 31.6151 0.951599Z" fill="#FF3D00"/>
<path d="M24.6798 15.4503V23.4397L21.4893 20.2773V12.288L24.6798 15.4503Z" fill="white"/>
<path d="M15.7855 24.2712H23.842L20.6531 21.1072H12.5967L15.7855 24.2712Z" fill="white"/>
<path d="M29.2147 28.7959V19.9472L26.0242 16.7848V25.6336L17.1309 25.604L20.3198 28.768L29.213 28.7975" fill="white"/>
<path d="M8.50098 8.3729V17.2217L11.6915 20.384V11.5352L20.5849 11.5648L17.3959 8.40082L8.50267 8.37128" fill="white"/>
<path d="M30.0572 30.4765L28.2471 28.6815L29.1262 27.8096L30.9363 29.6046L31.1432 30.6303L30.0572 30.4765Z" fill="white"/>
</g>
<defs>
<clipPath id="clip0_1589_35769">
<rect x="0.953613" y="0.951599" width="37.7372" height="37.0984" rx="18.5492" fill="white"/>
</clipPath>
</defs>
</svg>