<svg xmlns="http://www.w3.org/2000/svg" width="128" height="128" viewBox="0 0 128 128" fill="none"><script xmlns="" id="eppiocemhmnlbhjplcgkofciiegomcon"/><script xmlns=""/><script xmlns=""/>
<rect width="128" height="128" rx="64" fill="white"/>
<path fill-rule="evenodd" clip-rule="evenodd" d="M63.8371 128C82.8495 128 99.931 119.751 111.68 106.646C106.215 101.908 97.9781 101.621 92.1594 106.304L91.0479 107.198C80.3943 115.773 64.8708 114.507 55.7554 104.32C50.7837 98.7635 42.2696 98.1964 36.6012 103.043L23.785 114.003C34.762 122.762 48.6861 128 63.8371 128ZM84.6403 97.0091C94.7878 88.8416 109.051 89.1347 118.81 97.0228C124.644 87.3817 128 76.0819 128 64C128 50.5749 123.856 38.1154 116.774 27.8247C112.209 26.8548 107.26 27.9875 103.504 31.3078L102.435 32.2528C92.1894 41.3087 76.6239 40.7585 67.0468 31.0017C61.8234 25.6805 53.292 25.5057 47.8541 30.6086L32.9397 44.6044L24.7351 35.9056L39.6495 21.91C49.836 12.3509 65.8178 12.6782 75.6025 22.6463C80.7149 27.8548 89.0243 28.1486 94.4936 23.3141L95.5626 22.3692C98.8826 19.4346 102.724 17.4563 106.746 16.4158C95.3782 6.21062 80.3347 0 63.8371 0C31.2652 0 4.36216 24.2084 0.22533 55.5707C10.1186 50.8352 22.322 52.6576 30.3885 60.8971C35.481 66.0987 43.6809 66.6478 49.4244 62.1718L57.7635 55.6736C68.2434 47.507 83.0585 47.902 93.0856 56.6162L109.321 70.7248L101.455 79.7297L85.2201 65.6211C79.5185 60.6662 71.0943 60.4414 65.135 65.0852L56.7962 71.5832C46.2432 79.8067 31.178 78.7979 21.8219 69.2413C16.3814 63.6839 7.48321 63.49 1.80453 68.8051L0 70.4939C1.35046 83.8613 6.82478 96.0146 15.1347 105.669L28.8079 93.9762C39.4261 84.8964 55.3756 85.9589 64.6887 96.3671C69.5548 101.805 77.8416 102.481 83.5288 97.9037L84.6403 97.0091Z" fill="#901111"/>
</svg>