<svg xmlns="http://www.w3.org/2000/svg" width="642" height="649" viewBox="0 0 642 649" fill="none"><script xmlns="" id="eppiocemhmnlbhjplcgkofciiegomcon"/><script xmlns=""/><script xmlns=""/>
<g clip-path="url(#clip0_165_179)">
<ellipse cx="321" cy="317" rx="321" ry="317" fill="white"/>
<path d="M435.881 118.102C422.991 130.992 411.181 144.962 400.684 159.859L397.365 158.778C378.223 152.526 358.386 148.667 338.395 147.355C332.375 146.892 309.914 146.892 302.581 147.355C280.429 148.821 263.448 152.14 244.152 158.856C243.38 159.164 242.686 159.396 241.991 159.627C231.108 144.808 218.99 130.914 205.637 118.179C269.7 85.375 344.647 81.4386 411.722 107.296C418.9 109.997 425.924 113.162 432.793 116.558L435.881 118.102Z" fill="#F00500"/>
<path d="M555.364 410.866C545.638 438.575 531.05 464.278 512.14 486.662C501.874 498.703 490.528 509.74 478.333 519.774C449.774 542.776 416.43 559.216 380.847 567.861C341.483 577.355 300.42 577.355 261.056 567.861C225.396 559.216 192.129 542.776 163.571 519.774C151.375 509.74 140.029 498.703 129.763 486.662C75.3476 422.366 58.8299 334.066 86.5395 254.488C91.7881 239.746 98.3489 225.544 106.222 212.036C109.849 205.861 114.326 198.915 116.487 196.059C123.897 227.936 133.005 255.955 136.401 266.066C136.17 266.606 135.861 267.224 135.552 267.764C117.568 304.196 107.843 339.315 105.527 376.673C105.527 377.136 105.45 377.676 105.45 378.139C104.832 389.331 105.141 394.657 106.994 401.681C112.783 423.679 130.612 447.915 158.554 471.688C204.324 510.589 266.381 538.685 313.387 541.927C362.4 545.246 434.723 516.61 482.886 474.775C490.451 468.06 497.552 460.959 504.19 453.395C508.975 447.838 516.076 438.267 515.536 438.267C515.382 438.267 515.536 438.112 515.845 437.958C516.076 437.803 516.308 437.572 516.153 437.418C516.076 437.34 516.231 437.109 516.462 437.032C516.694 436.954 516.848 436.8 516.771 436.646C516.694 436.491 516.771 436.337 517.08 436.26C517.311 436.183 517.388 435.951 517.311 435.797C517.234 435.642 517.311 435.488 517.466 435.488C517.62 435.488 517.774 435.256 517.774 435.102C517.774 434.948 517.929 434.716 518.083 434.716C518.237 434.716 518.392 434.562 518.392 434.407C518.623 433.79 519.009 433.172 519.395 432.632C520.553 430.857 525.184 422.598 525.802 421.209C530.201 411.252 532.98 402.375 534.292 393.499C534.909 389.254 535.295 381.458 534.987 379.606C534.909 379.297 534.909 378.757 534.832 377.908C534.678 376.364 534.601 374.048 534.446 371.733C534.292 368.259 533.983 363.397 533.752 361.004C530.433 325.962 521.479 297.326 504.498 266.992C503.804 265.834 503.186 264.677 502.8 263.75C502.646 263.519 502.569 263.287 502.492 263.133C504.884 255.955 514.687 225.93 522.483 191.582L522.637 191.736L523.795 193.28C525.802 195.982 531.127 204.009 533.52 207.868C544.403 225.621 552.894 244.686 558.914 264.599C572.885 312.532 571.727 363.628 555.364 410.866Z" fill="#F00500"/>
<path d="M455.177 318.629C454.945 319.864 451.318 323.569 447.69 326.27C437.038 334.066 417.974 341.322 398.6 344.795C387.563 346.802 376.525 347.111 373.206 345.49C371.045 344.409 370.736 343.56 371.508 340.781C373.129 334.992 378.377 328.663 386.559 322.72C390.727 319.71 407.631 309.444 415.504 305.122C428.471 298.021 438.968 293.775 446.069 292.772C448.307 292.463 451.009 292.386 451.858 292.772C453.247 293.312 454.791 297.403 455.408 302.343C455.717 304.967 455.563 316.545 455.177 318.629Z" fill="black"/>
<path d="M273.328 344.178C272.865 345.104 270.549 346.107 267.925 346.493C265.301 346.879 257.274 346.648 252.72 346.107C236.356 343.946 218.99 338.929 206.331 332.754C199.23 329.281 194.136 325.808 190.354 322.025L188.193 319.787L187.961 316.854C187.575 311.76 187.652 303.733 188.27 300.877C188.656 298.484 189.505 296.168 190.663 294.084C191.28 293.312 191.28 293.312 194.059 293.312C197.455 293.312 200.311 293.853 204.942 295.319C214.436 298.252 228.561 305.353 245.773 315.696C259.975 324.187 265.301 328.355 269.392 334.066C272.17 337.617 274.023 342.634 273.328 344.178Z" fill="black"/>
<path d="M382.623 451.62C382.623 451.851 381.696 455.556 380.539 459.956C379.381 464.355 378.455 467.906 378.455 468.06C377.606 468.137 376.834 468.215 375.985 468.137H373.515L370.119 476.165C368.266 480.564 366.568 484.655 366.337 485.272L365.873 486.353L364.253 483.729L362.632 481.105V459.724L362.014 459.879C360.702 460.187 351.363 461.422 347.272 461.808C330.368 463.506 313.387 463.12 296.561 460.728C293.859 460.342 291.544 460.033 291.467 460.11C291.39 460.187 291.467 465.127 291.621 471.225L291.853 482.185L290.541 484.192C289.846 485.273 289.151 486.199 289.151 486.276C288.92 486.507 288.148 485.273 286.372 481.722C284.443 478.017 283.054 474.081 282.05 469.99L281.51 467.751L279.117 467.906L276.724 468.137L276.107 465.282C275.798 463.738 275.412 461.345 275.258 460.033L275.026 457.563L273.019 455.788C271.862 454.784 270.704 453.781 270.472 453.626C270.086 453.318 269.932 452.777 269.932 452.314V451.388L279.58 451.465L289.228 451.542L289.537 452.546L289.846 453.549L293.165 453.704C295.017 453.781 300.883 453.935 306.132 454.09L315.78 454.321L318.25 450.462L320.797 446.603H324.039L323.962 438.575L323.885 430.548L319.639 428.696C305.978 422.675 297.95 415.806 294.94 407.47C294.323 405.772 294.323 405.154 294.168 397.436C294.091 389.794 294.091 389.1 294.631 387.401C295.712 383.542 298.722 380.532 302.581 379.529C303.894 379.143 307.367 379.143 325.583 379.143L347.04 379.22L349.433 380.378C352.289 381.767 353.601 382.77 355.222 384.931C357.074 387.401 357.615 389.331 357.615 394.039C357.615 400.754 357.152 406.543 356.457 408.859C355.453 412.024 353.91 415.034 351.98 417.735C348.121 422.675 341.097 427.615 334.691 429.853L332.838 430.548L332.915 438.653L332.992 446.757L334.691 446.911L336.389 447.066L338.704 450.539L340.943 454.012H351.285C356.997 454.012 362.014 454.09 362.477 454.167C363.249 454.321 363.404 454.244 364.175 452.932L365.102 451.542H373.978C380.616 451.234 382.623 451.388 382.623 451.62Z" fill="black"/>
<path d="M341.869 473.772C340.402 474.621 339.399 475.007 339.167 474.853C338.936 474.776 337.855 473.849 336.697 473L334.613 471.302L332.452 473.618C327.744 478.712 327.589 478.944 326.2 479.021C324.039 479.252 323.576 478.866 320.952 474.93C319.562 472.923 318.482 471.225 318.482 471.225C318.482 471.225 317.478 471.071 316.32 470.993L314.159 470.762L313.156 472.846L312.152 474.93L310.377 474.39C308.988 473.927 307.599 473.386 306.286 472.769L303.971 471.611V467.211L324.502 467.289L345.033 467.366L345.111 469.45C345.188 471.92 345.265 471.843 341.869 473.772Z" fill="black"/>
<path d="M534.832 379.606C534.755 379.297 534.755 378.757 534.678 377.908C516.153 375.901 463.281 374.666 414.191 415.189C414.191 415.189 398.368 342.634 324.27 342.634C250.172 342.634 222.695 415.189 222.695 415.189C181.169 370.498 125.595 373.74 105.527 376.673C105.527 377.136 105.45 377.676 105.45 378.14C104.832 389.331 105.141 394.657 106.994 401.681C112.783 423.679 130.612 447.915 158.553 471.688C204.324 510.59 266.381 538.685 313.387 541.927C362.4 545.246 434.723 516.61 482.886 474.776C490.451 468.061 497.552 460.959 504.19 453.395C508.975 447.838 516.076 438.267 515.536 438.267C515.382 438.267 515.536 438.113 515.845 437.958C516.076 437.804 516.308 437.572 516.153 437.418C516.076 437.341 516.231 437.109 516.462 437.032C516.694 436.955 516.848 436.8 516.771 436.646C516.694 436.492 516.771 436.337 517.08 436.26C517.311 436.183 517.388 435.951 517.311 435.797C517.234 435.643 517.311 435.488 517.466 435.488C517.62 435.488 517.774 435.257 517.774 435.102C517.774 434.948 517.929 434.716 518.083 434.716C518.237 434.716 518.392 434.562 518.392 434.408C518.623 433.79 519.009 433.173 519.395 432.632C520.553 430.857 525.184 422.598 525.802 421.209C530.201 411.252 532.98 402.376 534.292 393.499C534.755 389.254 535.141 381.459 534.832 379.606ZM341.869 473.772C340.402 474.621 339.399 475.007 339.167 474.853C338.936 474.776 337.855 473.849 336.697 473L334.613 471.302L332.452 473.618C327.744 478.712 327.589 478.944 326.2 479.021C324.039 479.252 323.576 478.867 320.952 474.93C319.562 472.923 318.482 471.225 318.482 471.225C318.482 471.225 317.478 471.071 316.32 470.994L314.159 470.762L313.156 472.846L312.152 474.93L310.377 474.39C308.988 473.927 307.598 473.386 306.286 472.769L303.971 471.611V467.212L324.502 467.289L345.033 467.366L345.111 469.45C345.188 471.92 345.265 471.843 341.869 473.772ZM380.461 459.879C379.304 464.278 378.377 467.829 378.377 467.983C377.528 468.061 376.757 468.138 375.907 468.061H373.438L370.119 476.165C368.266 480.565 366.568 484.655 366.336 485.273L365.873 486.353L364.253 483.729L362.632 481.105V459.725L362.014 459.879C360.702 460.188 351.363 461.423 347.272 461.809C330.368 463.507 313.387 463.121 296.561 460.728C293.859 460.342 291.544 460.033 291.467 460.11C291.389 460.188 291.467 465.127 291.621 471.225L291.853 482.185L290.54 484.192C289.846 485.273 289.151 486.199 289.151 486.276C288.92 486.508 288.148 485.273 286.372 481.722C284.443 478.017 283.054 474.081 282.05 469.99L281.51 467.752L279.117 467.906L276.724 468.138L276.107 465.282C275.798 463.738 275.412 461.345 275.258 460.033L275.026 457.563L273.019 455.788C271.862 454.785 270.704 453.781 270.472 453.627C270.086 453.318 269.932 452.778 269.932 452.315V451.389L279.58 451.466L289.228 451.543L289.537 452.546L289.846 453.55L293.165 453.704C295.017 453.781 300.883 453.936 306.132 454.09L315.78 454.322L318.25 450.462L320.797 446.603H324.039L323.962 438.576L323.885 430.548L319.639 428.696C305.978 422.676 297.95 415.806 294.94 407.47C294.323 405.772 294.323 405.154 294.168 397.436C294.091 389.795 294.091 389.1 294.631 387.402C295.712 383.543 298.722 380.532 302.581 379.529C303.894 379.143 307.367 379.143 325.583 379.143L347.04 379.22L349.433 380.378C352.289 381.767 353.601 382.771 355.222 384.932C357.074 387.402 357.615 389.331 357.615 394.04C357.615 400.755 357.151 406.544 356.457 408.859C355.453 412.024 353.91 415.034 351.98 417.736C348.121 422.676 341.097 427.615 334.69 429.854L332.838 430.548L332.915 438.653L332.992 446.757L334.69 446.912L336.389 447.066L338.704 450.539L340.942 454.013H351.285C356.997 454.013 362.014 454.09 362.477 454.167C363.249 454.322 363.404 454.244 364.175 452.932L365.102 451.543H373.978C380.847 451.543 382.854 451.62 382.854 451.852C382.623 451.774 381.619 455.557 380.461 459.879Z" fill="white"/>
<path d="M534.215 371.733C534.06 368.26 533.752 363.397 533.52 361.004C530.201 325.962 521.248 297.326 504.267 266.992C503.572 265.835 502.955 264.677 502.569 263.751C502.414 263.519 502.337 263.287 502.26 263.133C504.653 255.955 514.455 225.93 522.251 191.582C532.825 144.962 539.541 90.4694 519.009 74.1061C519.009 74.1061 483.504 71.4818 435.958 118.102C423.068 130.992 411.258 144.962 400.761 159.859L397.442 158.778C378.3 152.526 358.464 148.667 338.473 147.355C332.452 146.892 309.991 146.892 302.659 147.355C280.506 148.822 263.526 152.14 244.229 158.856C243.457 159.164 242.763 159.396 242.068 159.627C231.185 144.808 219.067 130.915 205.714 118.179C156.238 71.3274 119.42 74.0289 119.42 74.0289C97.6542 90.9325 105.064 147.895 116.333 196.059C123.743 227.937 132.851 255.955 136.247 266.066C136.015 266.606 135.707 267.224 135.398 267.764C117.414 304.196 107.688 339.315 105.373 376.673C125.518 373.74 181.014 370.421 222.617 415.188C222.617 415.188 250.095 342.634 324.193 342.634C398.291 342.634 414.114 415.188 414.114 415.188C463.204 374.666 516.076 375.978 534.601 377.908C534.524 376.364 534.369 374.048 534.215 371.733ZM150.835 236.967C150.835 236.967 121.968 164.799 129.377 123.582C130.612 116.635 132.928 110.538 136.556 105.906C136.556 105.906 169.282 109.148 222.077 167.809C222.077 167.809 212.043 172.672 198.613 183.015C198.613 183.015 198.535 183.092 198.458 183.092C183.87 194.284 165.191 212.036 150.835 236.967ZM273.328 344.178C272.865 345.104 270.549 346.107 267.925 346.493C265.301 346.879 257.274 346.648 252.72 346.107C236.356 343.946 218.99 338.929 206.331 332.754C199.23 329.281 194.136 325.808 190.354 322.026L188.193 319.787L187.961 316.854C187.575 311.76 187.652 303.733 188.27 300.877C188.656 298.484 189.505 296.168 190.663 294.084C191.28 293.313 191.28 293.313 194.059 293.313C197.455 293.313 200.311 293.853 204.942 295.319C214.436 298.252 228.561 305.353 245.773 315.696C259.975 324.187 265.301 328.355 269.392 334.066C272.17 337.617 274.023 342.634 273.328 344.178ZM455.177 318.629C454.945 319.864 451.318 323.569 447.69 326.271C437.038 334.066 417.974 341.322 398.6 344.795C387.563 346.802 376.525 347.111 373.206 345.49C371.045 344.409 370.736 343.56 371.508 340.782C373.129 334.993 378.378 328.663 386.559 322.72C390.727 319.71 407.631 309.444 415.504 305.122C428.471 298.021 438.968 293.776 446.069 292.772C448.307 292.464 451.009 292.386 451.858 292.772C453.247 293.313 454.791 297.403 455.408 302.343C455.717 304.968 455.563 316.545 455.177 318.629ZM442.364 183.015L442.21 182.937C429.243 172.595 419.517 167.732 419.517 167.732C470.537 109.071 502.106 105.829 502.106 105.829C505.579 110.538 507.817 116.558 509.052 123.505C516.231 164.722 488.367 236.967 488.367 236.967C476.712 216.204 461.043 197.834 442.364 183.015Z" fill="#FFA409"/>
<path d="M509.129 123.505C503.109 122.733 474.628 122.578 442.364 183.014L442.21 182.937C429.243 172.594 419.517 167.732 419.517 167.732C470.537 109.071 502.106 105.829 502.106 105.829C505.656 110.537 507.895 116.558 509.129 123.505Z" fill="#FF9300"/>
<path d="M488.444 236.967C476.712 216.127 461.12 197.834 442.364 183.014C474.628 122.578 503.032 122.733 509.129 123.504C516.308 164.799 488.444 236.967 488.444 236.967Z" fill="#FF8300"/>
<path d="M222.077 167.732C222.077 167.732 212.043 172.594 198.613 182.937C198.613 182.937 198.535 183.014 198.458 183.014C165.037 122.501 135.629 122.733 129.3 123.505C130.535 116.558 132.851 110.46 136.478 105.829C136.556 105.829 169.282 109.071 222.077 167.732Z" fill="#FF9300"/>
<path d="M198.535 183.014C183.87 194.283 165.191 211.959 150.835 236.967C150.835 236.967 121.968 164.799 129.377 123.504C135.629 122.733 165.114 122.578 198.535 183.014Z" fill="#FF8300"/>
<path d="M129.377 123.504C128.991 123.582 128.528 123.659 128.142 123.736L129.377 123.504Z" fill="#FF8300"/>
<path d="M410.332 277.026C410.332 277.026 385.633 278.57 388.72 259.274C391.808 239.977 411.104 237.662 416.507 238.434C421.91 239.206 443.522 246.924 439.663 263.133C435.803 279.342 430.4 276.255 427.313 277.026C424.226 277.798 410.332 277.026 410.332 277.026Z" fill="white"/>
<path d="M228.175 277.026C228.175 277.026 203.475 278.57 206.563 259.274C209.65 239.977 228.947 237.662 234.349 238.434C239.752 239.206 261.364 246.924 257.505 263.133C253.646 279.342 248.243 276.255 245.155 277.026C242.068 277.798 228.175 277.026 228.175 277.026Z" fill="white"/>
</g>
<defs>
<clipPath id="clip0_165_179">
<rect width="641.7" height="649" fill="white"/>
</clipPath>
</defs>
</svg>