<svg xmlns="http://www.w3.org/2000/svg" width="128" height="128" viewBox="0 0 128 128" fill="none"><script xmlns="" id="eppiocemhmnlbhjplcgkofciiegomcon"/><script xmlns=""/><script xmlns=""/>
<rect width="128" height="128" rx="64" fill="white"/>
<path d="M63.759 106.146C81.14 106.146 95.245 95.6813 95.245 78.0273C95.245 61.5563 82.96 49.9993 63.759 49.9993V62.1933C54.932 62.1933 48.38 58.2803 48.38 50.2723C48.38 42.2643 54.022 37.5323 64.214 37.5323C72.586 37.5323 77.591 40.9903 78.865 45.5403H94.335C93.152 32.8003 81.14 22.4263 63.85 22.4263C45.559 22.4263 32.546 33.8923 32.546 50.6363C32.546 67.3803 46.105 77.4813 63.759 77.4813V65.9243C73.132 65.9243 79.593 70.1103 79.593 78.3913C79.593 86.5813 73.041 91.2223 63.85 91.2223C55.569 91.2223 49.836 87.5823 48.107 82.5773H32C34.275 95.7723 46.378 106.146 63.759 106.146Z" fill="black" stroke="black" stroke-width="0.91"/>
</svg>