<svg xmlns="http://www.w3.org/2000/svg" width="128" height="128" viewBox="0 0 128 128" fill="none"><script xmlns="" id="eppiocemhmnlbhjplcgkofciiegomcon"/><script xmlns=""/><script xmlns=""/>
<rect width="128" height="128" rx="64" fill="#0C101B"/>
<path d="M107.295 83.7985L91.7332 62.6564C90.0426 60.3587 87.5393 58.9824 84.8735 58.6791C84.2669 58.6086 83.725 58.2565 83.4214 57.7254C83.1127 57.1944 83.0801 56.5497 83.3239 55.9861C84.3915 53.5263 84.4563 50.6708 83.3078 48.0592L72.7799 24.0126C71.2196 20.442 67.6921 18.1392 63.7962 18.1392C59.9006 18.1392 56.3731 20.4474 54.8128 24.0126L44.2849 48.0592C43.1416 50.6708 43.2012 53.5263 44.2686 55.9861C44.5125 56.5497 44.4745 57.1944 44.1711 57.7254C43.8623 58.2565 43.3258 58.6086 42.719 58.6791C40.0532 58.9824 37.5499 60.3587 35.8594 62.6564L20.2979 83.7985C17.9897 86.9356 17.7567 91.1403 19.7019 94.5159C21.6525 97.8861 25.4128 99.7881 29.2815 99.3602L55.3707 96.4558C58.2045 96.1414 60.6483 94.6624 62.2412 92.5058C62.6044 92.0127 63.1841 91.7201 63.7962 91.7201C64.4085 91.7201 64.983 92.0127 65.3515 92.5058C66.9444 94.6624 69.3882 96.1414 72.222 96.4558L98.3112 99.3602C102.18 99.7935 105.94 97.8915 107.891 94.5159C109.836 91.1403 109.603 86.9356 107.295 83.7985ZM51.0903 51.0772L61.6342 27.0036C62.0138 26.142 62.8643 25.584 63.8015 25.584C64.7391 25.584 65.5896 26.142 65.9692 27.0036L76.5133 51.0772C76.8438 51.8358 76.7733 52.7135 76.3181 53.4071C75.8629 54.1006 75.0937 54.5178 74.2593 54.5178H53.3389C52.5099 54.5178 51.7351 54.1006 51.28 53.4071C50.8248 52.7135 50.7544 51.8358 51.0849 51.0772H51.0903ZM56.5031 87.7267C56.1292 88.4691 55.4033 88.9676 54.5797 89.0596L28.4634 91.964C27.5314 92.0667 26.6211 91.6119 26.1497 90.799C25.6783 89.9861 25.7379 88.973 26.296 88.2145L41.8737 67.0505C42.3668 66.384 43.1579 66.0048 43.9869 66.0535C44.8159 66.0968 45.5636 66.5573 45.9808 67.2779L45.9971 67.3051L56.4276 85.3699L56.4437 85.3968C56.8609 86.1177 56.8824 86.9954 56.5085 87.7321L56.5031 87.7267ZM65.942 79.5559C65.4976 80.3198 64.685 80.7968 63.7962 80.7968C62.9131 80.7968 62.0951 80.3255 61.6507 79.5613L53.6369 65.685C53.1926 64.9211 53.1926 63.9728 53.6369 63.2089C54.0812 62.4447 54.8941 61.9681 55.7826 61.9681H71.8047C72.6879 61.9681 73.5058 62.434 73.9502 63.2036C74.3946 63.9728 74.3946 64.9157 73.9502 65.6796L65.942 79.5559ZM101.448 90.799C100.977 91.6119 100.072 92.0725 99.1348 91.9693L73.0184 89.065C72.1947 88.973 71.4688 88.4745 71.095 87.7321C70.7211 86.9901 70.7426 86.1123 71.1598 85.3968L71.1762 85.3699L81.6064 67.3051L81.6225 67.2779C82.0397 66.5573 82.7875 66.0968 83.6165 66.0535C84.4456 66.0101 85.2366 66.384 85.7298 67.0505L101.308 88.2145C101.865 88.973 101.92 89.9861 101.454 90.799H101.448Z" fill="#E81899"/>
</svg>