<svg xmlns="http://www.w3.org/2000/svg" width="128" height="128" viewBox="0 0 128 128" fill="none"><script xmlns="" id="eppiocemhmnlbhjplcgkofciiegomcon"/><script xmlns=""/><script xmlns=""/>
<rect width="128" height="128" rx="64" fill="white"/>
<path d="M90.4168 19.0376C82.3855 14.3997 73.6911 12 64.25 12C54.8089 12 46.1164 14.318 38.0832 19.0376C30.05 23.7572 23.7572 30.05 19.0376 38.0832C14.318 46.1145 12 54.8089 12 64.25C12 73.6911 14.318 82.3836 19.0376 90.4168C23.7572 98.4481 30.05 104.743 38.0832 109.462C46.1164 114.182 54.8089 116.5 64.25 116.5C73.6911 116.5 82.3836 114.182 90.4168 109.462C98.45 104.743 104.743 98.45 109.462 90.4168C114.182 82.3855 116.5 73.6911 116.5 64.25C116.5 54.8089 114.182 46.1164 109.462 38.0832C104.743 30.05 98.45 23.7572 90.4168 19.0376ZM67.48 83.1303C61.6014 83.1303 56.8818 81.4735 53.2376 78.0801C50.7543 75.7621 49.1811 72.9463 48.3527 69.6346H104.661C104.082 74.4378 102.674 78.9085 100.521 83.1322H67.3983H67.4819L67.48 83.1303ZM48.4344 59.0326C49.1792 55.8026 50.836 52.9887 53.2376 50.6688C56.7982 47.2735 61.6014 45.535 67.48 45.535H100.768C102.921 49.7587 104.245 54.2294 104.743 59.0326H48.4344ZM28.9746 43.4659C32.6188 37.1731 37.5037 32.2046 43.7148 28.4787C49.9259 24.7528 56.7982 22.9307 64.25 22.9307C71.7018 22.9307 78.576 24.7528 84.7852 28.4787C87.9316 30.3825 90.8291 32.6188 93.3143 35.1857H66.9822C61.02 35.1857 55.7209 36.4283 51.083 38.9116C46.4451 41.3949 42.8028 44.7902 40.2359 49.1792C38.4138 52.2439 37.2548 55.5556 36.7589 59.1162H23.8408C24.5039 53.5682 26.1588 48.3508 28.9746 43.5495V43.4659ZM84.7852 100.021C78.5741 103.747 71.7018 105.569 64.25 105.569C56.7982 105.569 49.924 103.747 43.7148 100.021C37.5037 96.2954 32.5352 91.3269 28.9746 85.0341C26.2424 80.3145 24.5039 75.1807 23.8408 69.7144H36.7589C37.2548 73.275 38.4157 76.5867 40.2359 79.6514C42.8028 83.9568 46.447 87.4357 51.083 89.919C55.7209 92.4023 61.02 93.6449 66.9822 93.6449H93.0654C90.5821 96.1282 87.848 98.2828 84.7852 100.103V100.019V100.021Z" fill="black"/>
</svg>